PathFileType	4	(X/Y/Z)	C:\Users\WrightLab\Desktop\Jo\P2_Trial34.trc
DataRate	CameraRate	NumFrames	NumMarkers	Units	OrigDataRate	OrigDataStartFrame	OrigNumFrames
100.00	100.00	       14	19	mm	100.00	249	       663
Frame#	Time	Headset_Front			Headset_Back			Headset_Left			Headset_Right			Left_Shoulder			Right_Shoulder			Sternum			C7			Left Elbow			Right Elbow			Left Wrist			Right Wrist			Left ASIS			Right ASIS			S2			Left Knee			Right Knee			Left Ankle			Right Ankle			
		X1	Y1	Z1	X2	Y2	Z2	X3	Y3	Z3	X4	Y4	Z4	X5	Y5	Z5	X6	Y6	Z6	X7	Y7	Z7	X8	Y8	Z8	X9	Y9	Z9	X10	Y10	Z10	X11	Y11	Z11	X12	Y12	Z12	X13	Y13	Z13	X14	Y14	Z14	X15	Y15	Z15	X16	Y16	Z16	X17	Y17	Z17	X18	Y18	Z18	X19	Y19	Z19	

249	2.480	-699.91595	1421.47253	-278.52399	-744.13220	1660.85559	-473.43658	-622.68280	1542.99866	-435.51672	-817.15466	1513.89453	-314.47614	-614.33539	1410.25110	-499.09662	-939.85461	1414.97522	-503.70764	-783.95038	1295.89868	-430.43604	-784.68604	1396.10754	-607.21655	-510.76059	1074.88733	-424.06952	-1037.42725	1095.91528	-589.01898				-1076.00269	846.23578	-577.52588	-716.83142	994.36176	-376.19760	-856.25323	979.30652	-378.26349	-764.83740	906.22040	-630.97382	-633.62225	413.82697	-542.49432	-952.44904	529.88666	-416.63763	-585.19525	162.98750	-748.17474	-928.63086	189.74854	-180.44600	
250	2.490	-702.03223	1423.56018	-275.20386	-745.06958	1662.80347	-463.14011	-623.19458	1544.80310	-427.03339	-815.26929	1514.97913	-303.85153	-615.18622	1411.71497	-491.30020	-941.61224	1416.49988	-491.51343	-784.44714	1297.73584	-420.52759	-787.57159	1397.77405	-597.08618	-509.99371	1077.69482	-418.46677	-1040.30408	1097.05750	-574.72339				-1076.77173	847.71460	-562.84174	-716.63702	995.70685	-370.50766	-855.05206	980.26050	-367.50388	-768.27734	907.88263	-622.89191	-641.30042	412.03699	-522.24475	-959.34076	531.98236	-406.41727	-593.13129	172.85884	-733.84052	-926.58820	181.18309	-176.82091	
251	2.500	-698.22650	1425.46277	-258.82642	-745.77893	1664.70630	-452.84216	-623.67255	1547.27307	-418.59854	-815.28845	1517.08606	-293.89594	-616.62573	1414.25745	-484.29730	-942.58759	1418.05359	-479.32132	-783.52875	1298.95935	-412.16946	-790.34973	1399.77051	-586.48041	-510.18210	1078.66760	-413.46692	-1042.94128	1097.87317	-560.44067	-505.90991	845.12299	-364.96317	-1076.08130	846.80011	-546.47083	-716.44910	997.19482	-363.43857	-855.08124	983.29584	-359.57474	-771.97107	909.71356	-614.28369	-646.44891	415.40735	-503.61957	-966.83643	533.19391	-396.15170	-603.46735	181.88559	-717.17572	-924.43134	171.53162	-175.38060	
252	2.510	-699.27582	1425.81042	-260.62711	-746.28339	1666.71643	-442.56500	-623.70410	1548.89771	-408.98593	-814.65918	1518.40430	-283.89435	-617.28320	1416.48694	-476.38550	-943.65515	1419.37732	-466.75662	-782.98682	1302.05164	-400.11710	-793.01379	1401.91138	-576.56531	-511.42416	1080.14197	-410.25253	-1045.24426	1098.93323	-545.88336				-1075.93201	848.28741	-530.54523	-714.01532	998.88361	-353.26080	-853.28253	984.54852	-348.47318	-775.33716	911.72101	-605.77271	-647.28748	420.65680	-484.43515	-974.56470	534.33624	-387.60519	-610.88239	191.69995	-700.37628	-923.97015	163.41518	-172.42908	
253	2.520	-696.37738	1427.19360	-243.51407	-746.50409	1669.15918	-432.26413	-623.73151	1550.97693	-400.73587	-813.55347	1519.44727	-273.67966	-617.96936	1419.09875	-469.04730	-944.02478	1420.86914	-453.96143	-782.57745	1303.68286	-391.53732	-795.36566	1404.49402	-566.26245	-511.09970	1082.54590	-406.14175	-1047.66382	1100.77454	-531.39740				-1077.19641	849.26563	-514.02032	-713.67999	999.99225	-346.67868	-852.15161	985.69507	-338.44937	-778.19153	913.77246	-597.12598	-647.42712	428.74393	-466.44110	-981.89294	535.29034	-377.30078	-619.65637	200.47676	-680.85187	-923.31476	154.99498	-169.92003	
254	2.530	-696.10492	1428.13770	-234.45143	-746.75372	1671.01990	-421.65540	-623.86401	1552.59338	-391.12665	-813.42175	1520.33325	-264.35754	-618.28424	1421.35925	-461.63364	-944.68732	1422.96362	-442.09091	-781.38934	1305.24792	-380.79877	-797.56372	1407.04907	-556.43469	-511.59506	1083.21106	-402.36530	-1049.84973	1102.28625	-516.07257				-1076.96216	850.81677	-496.83127	-712.92572	1002.78809	-340.16412	-850.08514	987.14673	-328.67795	-781.94263	917.51312	-589.91724	-647.22107	436.32220	-446.50510	-989.11206	535.73730	-366.92029	-628.34625	209.26628	-660.66449	-923.52911	145.72424	-170.68353	
255	2.540	-694.41711	1429.18542	-225.20865	-746.79419	1672.88745	-411.06821	-623.27655	1554.45093	-382.95209	-811.80713	1522.24927	-253.58295	-619.00446	1423.63245	-454.47232	-946.26581	1423.95850	-430.93005	-781.73767	1306.71216	-369.60968	-799.74097	1409.28015	-546.33441	-512.40540	1084.76111	-399.38354	-1051.67712	1104.07227	-501.14520				-1076.65869	852.87842	-479.19394	-710.99390	1005.10748	-332.84207	-849.09204	989.06390	-319.63721	-784.31934	920.98706	-582.96954	-646.99951	443.36279	-425.98596	-996.76123	536.23889	-355.95135	-636.32355	216.46193	-639.69745	-923.85028	139.77246	-172.13599	
256	2.550	-692.26624	1430.32605	-217.75479	-746.71234	1674.99255	-401.18137	-622.78131	1556.67480	-374.51715	-809.80011	1523.51685	-243.34608	-619.60028	1426.02356	-447.08221	-944.72833	1426.30920	-416.62537	-779.79596	1308.33630	-362.99298	-801.54633	1412.04529	-536.37622	-512.35315	1085.74573	-396.30286	-1053.39722	1106.32141	-486.46414				-1076.43982	854.42261	-461.41458	-709.96436	1006.44659	-326.79568	-847.06738	990.04987	-310.80811	-786.98456	922.10120	-573.94403	-646.89355	449.00217	-403.95566	-1001.17664	535.59717	-341.29230	-643.44427	224.67889	-618.54047	-924.78778	136.32513	-174.27232	
257	2.560	-690.87524	1431.70020	-208.77299	-746.75873	1676.33813	-390.61057	-623.18811	1557.83826	-364.88193	-807.27069	1523.91760	-231.34407	-620.19275	1428.44629	-439.13553	-944.87036	1428.94543	-404.88123	-778.55432	1309.48303	-353.54211	-803.50568	1414.17651	-526.21222	-513.04083	1086.95215	-394.55731	-1054.20825	1108.46570	-471.16113				-1076.14758	857.40253	-444.71622	-708.14850	1009.48694	-318.62003	-845.25879	990.87531	-300.93805	-789.45557	925.15033	-565.94141	-646.66803	454.10452	-381.85031	-1003.42804	539.18048	-328.05777	-649.10217	231.39088	-595.08923	-925.97797	133.31984	-180.57521	
258	2.570	-688.76984	1432.59692	-199.23163	-746.47473	1677.89624	-380.66690	-622.14636	1558.87976	-356.41074	-807.51019	1525.59973	-222.56090	-620.71362	1430.33801	-431.96637	-944.41528	1430.20679	-392.03970	-777.40027	1310.96240	-346.90192	-805.24780	1416.37805	-516.47095	-513.58209	1088.12402	-390.69684	-1055.40503	1109.99182	-455.17303				-1074.76477	858.46094	-425.11362	-707.04285	1012.21265	-312.14767	-842.68488	992.55872	-289.81317	-791.19189	927.86517	-558.68207	-645.44098	459.72354	-359.08057	-1004.20612	545.08307	-317.67200	-654.86462	238.38261	-572.98438	-927.39270	131.84245	-184.67912	
259	2.580	-686.44379	1433.65173	-190.10078	-746.22998	1678.74902	-370.04773	-621.72833	1560.09460	-346.72696	-804.62439	1526.50745	-211.65862	-620.93665	1432.09302	-423.45135	-943.68536	1431.68982	-379.41568	-776.54681	1313.61841	-332.13428	-806.88190	1418.26208	-506.14343	-514.62396	1088.32751	-389.27615	-1055.79663	1110.96558	-439.29526				-1075.59998	862.57166	-409.09595	-705.38452	1014.10352	-302.56406	-840.82739	993.82556	-283.81909	-792.76556	930.52637	-551.02826	-644.19171	465.35184	-335.23758	-1004.58209	549.95422	-306.61234	-659.82892	243.59471	-549.50366	-927.59808	131.00215	-188.68259	
260	2.590	-684.95105	1433.83728	-182.03618	-745.77344	1679.91821	-360.06934	-621.31921	1561.44421	-338.77277	-802.19257	1526.64331	-200.24092	-621.05347	1433.24951	-415.68536	-944.07581	1432.47095	-368.33868	-775.52380	1313.22900	-326.17471	-808.41589	1420.06409	-495.84940	-514.92010	1088.92688	-386.05661	-1055.83948	1113.01953	-424.27148	-511.80545	816.21045	-446.74014	-1072.82764	862.84772	-389.15729	-703.41302	1015.63281	-296.00623	-838.61926	994.50568	-274.46692	-793.64551	932.41876	-542.48718	-640.26593	472.59875	-313.32718	-1003.53845	552.74182	-297.09909	-666.58112	248.73869	-524.72864	-928.47491	128.94771	-192.33144	
261	2.600	-681.68665	1433.97168	-173.26515	-745.17017	1680.60706	-349.81882	-620.21088	1562.31665	-330.19589	-799.42914	1526.72485	-189.69141	-621.02411	1434.45483	-408.03561	-942.13434	1434.40295	-354.25638	-773.72913	1314.84546	-314.91940	-809.73798	1421.43054	-485.30511	-514.97443	1089.66492	-384.36786	-1056.66882	1114.18323	-409.65332				-1072.61023	865.95953	-370.66516	-702.10150	1016.47992	-290.80225	-836.71912	995.52112	-268.02881	-794.88879	934.07050	-534.59052	-638.15057	478.70224	-290.34872	-1001.56042	554.22583	-289.82391	-671.18079	251.70007	-500.32565	-929.47864	128.20645	-195.81509	
262	2.610	-679.80627	1434.35510	-163.72162	-744.43756	1681.20581	-339.96295	-619.06732	1562.19531	-321.92401	-797.50208	1527.91675	-179.55690	-621.36780	1435.49756	-400.22620	-941.35455	1435.38391	-342.17307	-772.31152	1314.27258	-307.48068	-810.95227	1422.85632	-475.21713	-514.95630	1089.72485	-382.58478	-1056.30469	1115.64075	-392.99088				-1071.11780	867.16418	-352.93469	-699.47705	1017.65118	-282.63312	-834.46838	996.79840	-258.81372	-795.37256	935.42102	-526.79559	-633.48499	483.80853	-268.65747	-999.86865	554.25214	-283.69034	-675.53021	254.82932	-476.51138	-929.36517	127.79853	-197.73996	
